PathFileType	4	(X/Y/Z)	../Python\walking\Walking21\task.trc
DataRate	CameraRate	NumFrames	NumMarkers	Units	OrigDataRate	OrigDataStartFrame	OrigNumFrames
200.000000	200.000000	4	30	mm	200.000000	0	474
Frame#	Time	CLAV			STRN			RASI			LASI			PE01			RTH1			RTH2			RTH3			RTB1			RTB3			RHEE			RD5M			RTOE			LTH2			LTH3			LTB1			LTB2			LTB3			LHEE			LTOE			LD5M			RBAK			LTH1			RTB2			C7			PE03			LPSI			PE02			RPSI			T10			
		X1	Y1	Z1	X2	Y2	Z2	X3	Y3	Z3	X4	Y4	Z4	X5	Y5	Z5	X6	Y6	Z6	X7	Y7	Z7	X8	Y8	Z8	X9	Y9	Z9	X10	Y10	Z10	X11	Y11	Z11	X12	Y12	Z12	X13	Y13	Z13	X14	Y14	Z14	X15	Y15	Z15	X16	Y16	Z16	X17	Y17	Z17	X18	Y18	Z18	X19	Y19	Z19	X20	Y20	Z20	X21	Y21	Z21	X22	Y22	Z22	X23	Y23	Z23	X24	Y24	Z24	X25	Y25	Z25	X26	Y26	Z26	X27	Y27	Z27	X28	Y28	Z28	X29	Y29	Z29	X30	Y30	Z30	

1	0	-1417.497924804688	1246.49072265625	201.5110321044923	-1355.864379882813	1061.407836914063	202.9736785888673	-1387.184204101563	862.289184570313	316.9435119628907	-1381.927734375	863.0881958007817	90.36878967285159	-1580.588134765626	932.5756835937505	219.3209838867189	-1358.682739257813	577.3723144531252	348.6967773437501	-1310.146850585938	516.0262451171877	331.488006591797	-1308.186401367188	577.1065063476565	341.1570739746095	-1227.093383789063	312.9145812988282	320.3106079101564	-1217.908081054688	234.9608001708986	313.2106323242189	-1245.947143554688	26.5640106201172	244.3866424560548	-1102.517333984375	53.11183166503909	315.5157470703126	-1075.028076171875	76.13551330566409	268.5602111816407	-1525.485595703125	552.6719360351565	75.46846008300784	-1448.76318359375	572.8623657226565	75.13297271728518	-1602.328247070313	282.6210021972657	92.73744201660159	-1622.636352539063	206.3714447021486	106.5719909667969	-1578.163940429688	227.7628631591798	109.6700057983399	-1687.965698242188	33.59328079223634	170.8809661865235	-1494.240844726563	24.99182128906251	176.6370391845704	-1534.065551757813	12.81165885925294	123.929786682129	-1592.864257812501	1234.5244140625	296.649871826172	-1489.483276367188	600.8848876953127	61.90970611572268	-1257.658935546875	261.545623779297	327.6440734863282	-1543.680175781251	1334.992919921875	200.9739837646486	-1597.433959960938	874.3789062500005	189.9856262207032	-1586.086181640626	899.183959960938	174.4582519531251	-1596.868286132813	871.5797729492192	240.592254638672	-1584.983276367188	893.8337402343755	261.0674133300782	-1569.078125000001	1037.452514648438	203.1826782226564	
2	0.005	-1410.6865234375	1244.691162109375	201.6836853027345	-1349.163940429688	1059.47412109375	202.7938079833986	-1379.944091796875	860.5819702148442	316.6359863281251	-1375.706665039063	861.615600585938	89.97560119628909	-1573.536987304688	930.883666992188	220.3239593505861	-1352.639282226563	574.9104003906252	348.868865966797	-1304.510009765625	513.3129882812502	331.3635864257814	-1302.14794921875	574.3387451171877	341.4944763183595	-1217.0166015625	312.7157592773439	319.9444580078126	-1205.628173828125	234.9721527099611	313.1356201171876	-1227.592041015625	25.8218173980713	244.696746826172	-1084.640258789063	56.06654739379886	315.4975891113282	-1057.81787109375	79.72003173828128	268.478973388672	-1521.285766601563	551.9597167968752	75.44301605224612	-1444.46142578125	571.7998657226565	74.52858734130862	-1600.058715820313	282.6402893066407	92.80300903320315	-1621.092407226563	206.5752105712892	106.6262741088868	-1576.409301757813	227.5448455810548	109.5495834350587	-1687.910278320313	34.08115768432619	171.0595703125001	-1494.220336914063	24.97460365295412	176.626449584961	-1534.080810546875	12.76172924041749	123.9443893432618	-1586.089111328126	1232.912475585938	296.6750488281251	-1485.197143554688	600.0159301757815	61.67205810546878	-1246.14013671875	260.4418334960939	327.4451293945314	-1536.878662109376	1333.408203125	201.2883148193361	-1590.840332031251	872.835327148438	190.9931640625001	-1579.548583984376	897.6030883789067	175.4417419433594	-1589.946533203126	869.9223022460942	241.5914459228517	-1577.973876953126	892.0126342773442	261.8867797851564	-1562.433471679688	1035.8310546875	203.7199096679689	
3	0.01	-1403.839233398438	1242.872802734375	201.8589935302736	-1342.435302734375	1057.52294921875	202.6105957031251	-1372.6845703125	858.8735351562505	316.3207397460939	-1369.47705078125	860.1359863281255	89.5706481933594	-1566.459350585938	929.176879882813	221.3322143554689	-1346.5986328125	572.4531860351565	349.0257568359376	-1298.884399414063	510.6016540527346	331.2388610839845	-1296.113647460938	571.5631103515627	341.8925170898439	-1207.1552734375	312.5412597656251	319.587860107422	-1193.695678710938	235.0481567382814	313.0697631835939	-1209.928588867188	25.32472610473634	245.0154418945314	-1067.478271484375	59.03768157958987	315.4995727539064	-1041.286254882813	83.26135253906253	268.4375305175782	-1516.980834960938	551.2285766601565	75.44873809814456	-1440.066284179688	570.7244262695315	73.96985626220706	-1597.740844726563	282.6875000000001	92.89500427246097	-1619.510498046876	206.815887451172	106.7059402465821	-1574.606689453126	227.3429718017579	109.4559478759766	-1687.842041015626	34.63430786132814	171.2521057128907	-1494.204223632813	24.95877265930177	176.6193237304688	-1534.098999023438	12.71233272552491	123.9778289794922	-1579.272949218751	1231.30224609375	296.7174377441407	-1480.814331054688	599.131774902344	61.4583549499512	-1234.898559570313	259.4476623535157	327.2692260742189	-1530.041748046875	1331.816528320313	201.611297607422	-1584.214599609376	871.270874023438	192.0193786621095	-1572.980346679688	896.0026245117192	176.4361419677735	-1582.986572265626	868.2496948242192	242.6096038818361	-1570.931884765626	890.180786132813	262.7167053222657	-1555.760620117188	1034.201049804688	204.2582092285157	
4	0.015	-1396.955688476563	1241.044799804688	202.0381622314454	-1335.676879882813	1055.564575195313	202.4258880615236	-1365.405883789063	857.1748657226567	315.9999084472657	-1363.234375	858.6521606445317	89.15557098388675	-1559.355346679688	927.4647827148442	222.3396759033204	-1340.538208007813	570.030944824219	349.1544799804689	-1293.231567382813	507.9358825683596	331.1029357910157	-1290.061645507813	568.823913574219	342.3267211914064	-1197.50341796875	312.3775024414064	319.2414855957032	-1182.121948242188	235.1630706787111	313.0092773437501	-1193.024780273438	25.01635742187501	245.3319396972657	-1051.07763671875	61.95470046997073	315.5097961425782	-1025.474365234375	86.6906661987305	268.4228515625001	-1512.577880859375	550.4859008789065	75.48491668701175	-1435.583862304688	569.6375732421877	73.45442962646487	-1595.378173828126	282.7658081054689	93.008903503418	-1617.891845703126	207.0968017578126	106.8077774047852	-1572.759399414063	227.1619110107423	109.3872299194337	-1687.759887695313	35.2582130432129	171.4546966552735	-1494.192626953125	24.94385528564455	176.6145019531251	-1534.12060546875	12.66520309448243	124.0288925170899	-1572.415649414063	1229.700317382813	296.7771301269532	-1476.3388671875	598.237243652344	61.26809692382815	-1223.9423828125	258.5505371093751	327.1151733398439	-1523.168823242188	1330.22509765625	201.9430999755861	-1577.554199218751	869.6930541992192	193.0601043701173	-1566.378417968751	894.3903808593755	177.4360046386719	-1575.987182617188	866.5718383789067	243.6426849365236	-1563.857177734376	888.3488769531255	263.5529785156251	-1549.057128906251	1032.569580078125	204.7929534912111	
